<?xml version="1.0" encoding="utf-8"?>
<!-- Generator: Adobe Illustrator 21.0.0, SVG Export Plug-In . SVG Version: 6.00 Build 0)  -->
<svg version="1.1" xmlns="http://www.w3.org/2000/svg" xmlns:xlink="http://www.w3.org/1999/xlink" x="0px" y="0px"
	 viewBox="0 0 84 94.1" style="enable-background:new 0 0 84 94.1;" xml:space="preserve">
<style type="text/css">
	.st0{fill:#445bc1;}
</style>
<g id="Vrstva_2">
	<rect x="0" y="0.1" class="st0" width="11.4" height="94"/>
	<rect x="11.5" y="0.1" class="st0" width="26.7" height="11.4"/>
	<rect x="49.6" y="0.1" class="st0" width="22.9" height="11.4"/>
	<rect x="72.5" y="0.1" class="st0" width="11.4" height="94"/>
	<rect x="49.6" y="82.6" class="st0" width="22.9" height="11.4"/>
	<rect x="11.5" y="82.6" class="st0" width="26.7" height="11.5"/>
	<rect x="49.6" y="19.1" class="st0" width="11.4" height="55.9"/>
	<rect x="22.9" y="19.1" class="st0" width="15.3" height="11.4"/>
</g>
<g id="Vrstva_3">
	<polygon class="st0" points="0,0.1 38.2,0.1 38.2,11.5 11.5,11.5 11.5,82.6 38.2,82.6 38.2,94.1 0,94.1 	"/>
	<polygon class="st0" points="49.6,0.1 49.6,11.5 72.5,11.5 72.5,82.6 49.6,82.6 49.6,94.1 84,94.1 84,0.1 	"/>
</g>
</svg>
