<svg xmlns="http://www.w3.org/2000/svg" width="37.544" height="26.986" viewBox="0 0 37.544 26.986">
  <g id="dinosaur" transform="translate(0 -83.535)">
    <g id="Group_8" data-name="Group 8" transform="translate(1.629 83.535)">
      <g id="Group_7" data-name="Group 7" transform="translate(0 0)">
        <path id="Path_13" data-name="Path 13" d="M55.061,109.609c-.025-.394-.286-3.885-1.585-5.188a3.65,3.65,0,0,0-3.841-.848,9.676,9.676,0,0,0-1.1-3.191,2.536,2.536,0,0,0,.995-.327c1.007-.583,2.067-2.947,2.368-3.658a.742.742,0,0,0-.584-1.015c-.764-.094-3.335-.355-4.342.228a2.543,2.543,0,0,0-1.051,1.163,16.147,16.147,0,0,0-1.547-1.4,2.542,2.542,0,0,0,.92-.694c.7-.839,1.525-3.975,1.761-4.916a.738.738,0,0,0-.977-.861c-.923.366-3.99,1.627-4.7,2.478a2.554,2.554,0,0,0-.589,1.873s0,.008,0,.012a12.4,12.4,0,0,0-2.294-.676,3.087,3.087,0,0,0,.633-1.875c0-1.478-2.088-4.333-2.507-4.891a.738.738,0,0,0-1.167,0c-.419.558-2.507,3.413-2.507,4.891a3.088,3.088,0,0,0,.695,1.955,14.8,14.8,0,0,0-2.276.671,2.573,2.573,0,0,0-.155-.888c-.38-1.047-2.889-2.976-3.95-3.757a.738.738,0,0,0-1.163.575,22.448,22.448,0,0,0,.306,4.938,2.548,2.548,0,0,0,1.041,1.29,16.7,16.7,0,0,0-1.61,1.352,2.543,2.543,0,0,0-1.082-1.235c-1.007-.583-3.578-.322-4.342-.228A.747.747,0,0,0,19.83,96.4c.3.711,1.361,3.074,2.368,3.658a2.538,2.538,0,0,0,.932.319,8.681,8.681,0,0,0-.823,2.269l-2.283-.6a.734.734,0,0,0-.37,1.418l2.511.66a7.9,7.9,0,0,1-.318,1.815l-1.494-.31a.734.734,0,0,0-.3,1.436l1.224.254a3.862,3.862,0,0,1-.668.881c-.669.643.338,1.713,1.016,1.054a7.824,7.824,0,0,0,2-5.225,9.174,9.174,0,0,1,2.991-5.9A24.237,24.237,0,0,0,25.49,102.6a.731.731,0,0,0,1.446.21,23.907,23.907,0,0,1,1.243-4.684c.237-.642.494-1.279.781-1.9A14.731,14.731,0,0,1,32.789,94.4c-.274.291-.558.615-.843.975a13.447,13.447,0,0,0-2.972,8.409.731.731,0,0,0,1.462,0,11.828,11.828,0,0,1,2.622-7.455,12.89,12.89,0,0,1,2.514-2.449,10.269,10.269,0,0,1,2.628.151,10.355,10.355,0,0,0-1.541,1.085,12.361,12.361,0,0,0-4.1,8.6.731.731,0,0,0,1.455.14,10.959,10.959,0,0,1,3.534-7.571,8.425,8.425,0,0,1,2.778-1.616,12.63,12.63,0,0,1,2.032,1.06,10.832,10.832,0,0,0-1.968.966,9.7,9.7,0,0,0-4.462,6.742.731.731,0,0,0,1.439.257,8.179,8.179,0,0,1,3.749-5.725,9.323,9.323,0,0,1,2.7-1.159q.493.417.957.887.246.249.479.509a9.151,9.151,0,0,0-1.579.54,7.685,7.685,0,0,0-4.209,4.578.731.731,0,0,0,1.38.484,6.17,6.17,0,0,1,3.38-3.7,7.683,7.683,0,0,1,2.062-.608,12.956,12.956,0,0,1,1.009,1.669,10.73,10.73,0,0,0-3.389,1.663A.733.733,0,0,0,44.786,104a9.3,9.3,0,0,1,3.083-1.474,7.228,7.228,0,0,1,.392,1.951,3.645,3.645,0,0,0-1.022,2.541,3.554,3.554,0,0,0,1.5,2.92,6.029,6.029,0,0,0,3.216.6,19.817,19.817,0,0,0,2.472-.15A.733.733,0,0,0,55.061,109.609ZM24.394,98.365a1.03,1.03,0,0,1-1.465.421A6.643,6.643,0,0,1,21.6,96.747a6.593,6.593,0,0,1,2.426.135A1.046,1.046,0,0,1,24.394,98.365Zm5.4-4.578a1.1,1.1,0,0,1-2.014-.084,14.186,14.186,0,0,1-.225-2.937,11.127,11.127,0,0,1,2.285,2.186A.976.976,0,0,1,29.8,93.787Zm6.246-1.441a1.633,1.633,0,0,1-1.629-1.634,9.446,9.446,0,0,1,1.629-3.191,9.446,9.446,0,0,1,1.629,3.191A1.633,1.633,0,0,1,36.042,92.346Zm6.593,1.525a1.122,1.122,0,0,1-.135-1.548,12.359,12.359,0,0,1,2.754-1.483,12.935,12.935,0,0,1-1.075,2.9A1.1,1.1,0,0,1,42.634,93.871Zm4.672,4.513a1.113,1.113,0,0,1,.4-1.5,3.764,3.764,0,0,1,1.414-.169c.318,0,.664.012,1.011.034A6.629,6.629,0,0,1,48.8,98.786,1.1,1.1,0,0,1,47.306,98.384Zm4.7,10.684H52c-2,0-2.54-.382-2.657-.5a2.2,2.2,0,1,1,3.1-3.109c.574.576.94,2.259,1.093,3.542C53.129,109.035,52.583,109.068,52.006,109.068Z" transform="translate(-19.147 -85.535)"/>
      </g>
    </g>
    <g id="Group_10" data-name="Group 10" transform="translate(0 108.819)">
      <g id="Group_9" data-name="Group 9" transform="translate(0)">
        <path id="Path_14" data-name="Path 14" d="M.836,406.3a.865.865,0,0,0-.835.868A.889.889,0,0,0,.853,408H.871a.852.852,0,0,0,.835-.868A.869.869,0,0,0,.836,406.3Z" transform="translate(0 -406.296)"/>
      </g>
    </g>
    <g id="Group_12" data-name="Group 12" transform="translate(23.991 104.706)">
      <g id="Group_11" data-name="Group 11">
        <path id="Path_15" data-name="Path 15" d="M330.527,349.677a.866.866,0,0,0-1.137.4.85.85,0,0,0,.4,1.134.851.851,0,1,0,.735-1.535Z" transform="translate(-329.307 -349.596)"/>
      </g>
    </g>
    <g id="Group_14" data-name="Group 14" transform="translate(23.652 107.229)">
      <g id="Group_13" data-name="Group 13">
        <path id="Path_16" data-name="Path 16" d="M333.431,389.109h-.016a3.124,3.124,0,0,1-2.543-1.145.852.852,0,0,0-1.406.964,4.832,4.832,0,0,0,3.965,1.882.851.851,0,1,0,0-1.7Z" transform="translate(-329.322 -387.602)"/>
      </g>
    </g>
    <g id="Group_16" data-name="Group 16" transform="translate(8.373 107.205)">
      <g id="Group_15" data-name="Group 15" transform="translate(0 0)">
        <path id="Path_17" data-name="Path 17" d="M121.6,388.848a3.524,3.524,0,0,1-3.148-1.174.852.852,0,0,0-1.4.97c1.042,1.514,2.817,1.9,4.549,1.9a.851.851,0,1,0,0-1.7Z" transform="translate(-116.904 -387.317)"/>
      </g>
    </g>
    <g id="Group_18" data-name="Group 18" transform="translate(7.64 104.732)">
      <g id="Group_17" data-name="Group 17">
        <ellipse id="Ellipse_6" data-name="Ellipse 6" cx="0.853" cy="0.851" rx="0.853" ry="0.851"/>
      </g>
    </g>
    <g id="Group_20" data-name="Group 20" transform="translate(31.829 105.643)">
      <g id="Group_19" data-name="Group 19" transform="translate(0 0)">
        <ellipse id="Ellipse_7" data-name="Ellipse 7" cx="0.853" cy="0.851" rx="0.853" ry="0.851"/>
      </g>
    </g>
  </g>
</svg>
