<svg xmlns="http://www.w3.org/2000/svg" width="48.5" height="40.408" viewBox="0 0 48.5 40.408">
  <g id="fish" transform="translate(0 -41.656)">
    <g id="Group_30" data-name="Group 30" transform="translate(0 41.656)">
      <g id="Group_29" data-name="Group 29" transform="translate(0 0)">
        <path id="Path_18" data-name="Path 18" d="M48.5,47.551,35.29,60.761,23.567,49.038l7.382-7.382H20.2L0,61.86l20.2,20.2H30.949l-7.382-7.382L35.29,62.959,48.5,76.169V65.423L44.936,61.86,48.5,58.3ZM25.643,53.312,24.63,54.325l1.1,1.1,1.013-1.013,3.175,3.175-3.175,3.175-3.175-3.175L24.6,56.555l-1.1-1.1-1.031,1.031-3.175-3.175,3.175-3.175ZM12.885,59.721l1.036-1.036L17.1,61.86,13.92,65.035,12.885,64a3.859,3.859,0,0,0,0-4.279Zm2.135-2.135,3.175-3.175,3.175,3.175-3.175,3.175Zm3.175,5.373,3.175,3.175-3.175,3.175-3.175-3.175Zm1.1-1.1,3.175-3.175,3.175,3.175-3.175,3.175Zm1.554-18.65H27.2L13.92,56.487l-3.175-3.175Zm-11.2,11.2,3.175,3.175-1.036,1.036a3.859,3.859,0,0,0-4.279,0L6.471,57.586Zm2.331,7.449a2.331,2.331,0,1,1-2.331-2.331A2.334,2.334,0,0,1,11.978,61.86ZM6.408,64,5.373,65.035,2.2,61.86l3.175-3.175,1.036,1.036a3.859,3.859,0,0,0,0,4.279Zm.063,2.135L7.507,65.1a3.859,3.859,0,0,0,4.279,0l1.036,1.036L9.647,69.309ZM27.2,80.509h-6.35l-10.1-10.1,3.175-3.175Zm-4.729-6.927-3.175-3.175,3.175-3.175,3.175,3.175Zm4.274-4.274-3.175-3.175,3.175-3.175,3.175,3.175Zm4.274-4.274L27.841,61.86l3.175-3.175,3.175,3.175Zm15.93,1.032v6.35l-6.283-6.283,3.175-3.175Zm0-8.414-3.108,3.108-.888-.887-1.1,1.1.888.887-3.175,3.175L36.389,61.86l3.175-3.175,1.03,1.03,1.1-1.1-1.03-1.03L46.946,51.3Z" transform="translate(0 -41.656)" fill="#deba57"/>
        <rect id="Rectangle_19" data-name="Rectangle 19" width="1.554" height="1.554" transform="translate(8.869 19.427)" fill="#deba57"/>
      </g>
    </g>
  </g>
</svg>
